<svg id="Icon_Search" data-name="Icon &gt; Search" xmlns="http://www.w3.org/2000/svg" width="19.999" height="20" viewBox="0 0 19.999 20">
  <path id="search" d="M14.316,12.6,20,18.283,18.284,20,12.6,14.315V13.4l-.322-.322a7.251,7.251,0,0,1-4.826,1.77A7.187,7.187,0,0,1,2.171,12.68,7.158,7.158,0,0,1,0,7.425,7.159,7.159,0,0,1,2.172,2.171,7.155,7.155,0,0,1,7.426,0a7.161,7.161,0,0,1,5.255,2.172,7.186,7.186,0,0,1,2.171,5.282,7.252,7.252,0,0,1-1.77,4.826l.322.322h.912Zm-6.863,0A4.964,4.964,0,0,0,11.1,11.1a4.964,4.964,0,0,0,1.5-3.646,4.964,4.964,0,0,0-1.5-3.646A4.964,4.964,0,0,0,7.453,2.3a4.964,4.964,0,0,0-3.646,1.5,4.964,4.964,0,0,0-1.5,3.646,4.964,4.964,0,0,0,1.5,3.646A4.964,4.964,0,0,0,7.453,12.6Z" transform="translate(0 0.001)" fill="rgba(73,80,87,0.3)"/>
</svg>
